<svg width="14" height="11" viewBox="0 0 14 11" fill="none" xmlns="http://www.w3.org/2000/svg">
<g id="Australia (AU)">
<g clip-path="url(#clip0_1824_7556)">
<path id="Vector" d="M0 0.25H14V10.75H0V0.25Z" fill="#00008B"/>
<path id="Vector_2" d="M0.820312 0.25L3.48906 2.22969L6.14687 0.25H7V0.928125L4.375 2.88594L7 4.83281V5.5H6.125L3.5 3.54219L0.885938 5.5H0V4.84375L2.61406 2.89687L0 0.95V0.25H0.820312Z" fill="white"/>
<path id="Vector_3" d="M4.6375 3.32344L7 5.0625V5.5L4.03594 3.32344H4.6375ZM2.625 3.54219L2.69062 3.925L0.590625 5.5H0L2.625 3.54219ZM7 0.25V0.282812L4.27656 2.33906L4.29844 1.85781L6.45312 0.25H7ZM0 0.25L2.61406 2.175H1.95781L0 0.709375V0.25Z" fill="#FF0000"/>
<path id="Vector_4" d="M2.63594 0.25V5.5H4.38594V0.25H2.63594ZM0 2V3.75H7V2H0Z" fill="white"/>
<path id="Vector_5" d="M0 2.36094V3.41094H7V2.36094H0ZM2.98594 0.25V5.5H4.03594V0.25H2.98594Z" fill="#FF0000"/>
<path id="Vector_6" d="M11.5275 8.92766L11.0791 8.98453L11.1272 9.43297L10.8034 9.11797L10.4819 9.43516L10.5256 8.98672L10.0772 8.93422L10.4556 8.68922L10.2172 8.30641L10.6459 8.44859L10.7969 8.02203L10.9522 8.44641L11.3787 8.29984L11.1447 8.68484L11.5275 8.92766ZM11.4466 6.36391L11.5056 6.07953L11.2913 5.88266L11.58 5.84984L11.7003 5.58516L11.8206 5.84984L12.1094 5.88266L11.895 6.07953L11.9541 6.36391L11.7003 6.21953L11.4466 6.36391ZM9.16937 5.05141L8.72531 5.09953L8.76469 5.54359L8.44969 5.22641L8.12594 5.53484L8.17844 5.09078L7.73656 5.03172L8.115 4.79547L7.88531 4.41266L8.3075 4.56141L8.465 4.14359L8.61156 4.56578L9.03594 4.42797L8.7975 4.80641L9.17156 5.05141H9.16937ZM13.6275 4.33391L13.1703 4.39297L13.2206 4.85016L12.8903 4.52859L12.5622 4.85234L12.6081 4.39297L12.1509 4.34047L12.5381 4.08891L12.2953 3.69734L12.7328 3.84391L12.8859 3.41078L13.0434 3.84391L13.4788 3.69297L13.2381 4.08672L13.6275 4.33391ZM11.5253 2.50734L11.0725 2.55766L11.1141 3.01266L10.7925 2.68891L10.4622 3.00391L10.5147 2.55109L10.0619 2.48984L10.4491 2.24922L10.215 1.85766L10.6459 2.00859L10.8056 1.58203L10.9544 2.01297L11.3875 1.87078L11.1447 2.25578L11.5253 2.50734ZM5.11812 8.68703L4.11625 8.80516L4.21688 9.80922L3.49937 9.10047L2.7775 9.80484L2.88469 8.80078L1.88281 8.67391L2.73375 8.13141L2.20875 7.26953L3.1625 7.59766L3.50812 6.64828L3.84719 7.59984L4.80312 7.27828L4.27156 8.13578L5.12031 8.68484L5.11812 8.68703Z" fill="white"/>
</g>
</g>
<defs>
<clipPath id="clip0_1824_7556">
<rect y="0.25" width="14" height="10.5" rx="2" fill="white"/>
</clipPath>
</defs>
</svg>
