<svg width="16" height="17" viewBox="0 0 16 17" fill="none" xmlns="http://www.w3.org/2000/svg">
<g id="eye">
<g id="Icon">
<path d="M1.61342 8.9761C1.52262 8.83234 1.47723 8.76046 1.45182 8.6496C1.43273 8.56632 1.43273 8.43498 1.45182 8.35171C1.47723 8.24084 1.52262 8.16896 1.61341 8.0252C2.36369 6.83721 4.59693 3.83398 8.00027 3.83398C11.4036 3.83398 13.6369 6.83721 14.3871 8.0252C14.4779 8.16896 14.5233 8.24084 14.5487 8.35171C14.5678 8.43498 14.5678 8.56632 14.5487 8.6496C14.5233 8.76046 14.4779 8.83234 14.3871 8.9761C13.6369 10.1641 11.4036 13.1673 8.00027 13.1673C4.59693 13.1673 2.36369 10.1641 1.61342 8.9761Z" stroke="#808080" stroke-width="1.33333" stroke-linecap="round" stroke-linejoin="round"/>
<path d="M8.00027 10.5007C9.10484 10.5007 10.0003 9.60522 10.0003 8.50065C10.0003 7.39608 9.10484 6.50065 8.00027 6.50065C6.8957 6.50065 6.00027 7.39608 6.00027 8.50065C6.00027 9.60522 6.8957 10.5007 8.00027 10.5007Z" stroke="#808080" stroke-width="1.33333" stroke-linecap="round" stroke-linejoin="round"/>
</g>
</g>
</svg>
