<svg width="18" height="18" viewBox="0 0 18 18" fill="none" xmlns="http://www.w3.org/2000/svg">
<path d="M15.1156 6.25435C14.351 2.88978 11.4161 1.375 8.83803 1.375C8.83803 1.375 8.83803 1.375 8.83075 1.375C6.25999 1.375 3.31782 2.8825 2.55314 6.24706C1.70108 10.0049 4.00238 13.1874 6.08521 15.1901C6.85717 15.9329 7.8476 16.3043 8.83803 16.3043C9.82847 16.3043 10.8189 15.9329 11.5836 15.1901C13.6664 13.1874 15.9677 10.0122 15.1156 6.25435ZM8.83803 9.90293C7.57086 9.90293 6.54401 8.87609 6.54401 7.60891C6.54401 6.34174 7.57086 5.31489 8.83803 5.31489C10.1052 5.31489 11.1321 6.34174 11.1321 7.60891C11.1321 8.87609 10.1052 9.90293 8.83803 9.90293Z" fill="#5251FA"/>
</svg>
