<svg width="67" height="77" viewBox="0 0 67 77" fill="none" xmlns="http://www.w3.org/2000/svg">
<path d="M0.5 24.1671V53.6397C0.5 56.2925 1.90189 58.7478 4.18643 60.0961L29.0925 74.7961C31.4026 76.1596 34.2651 76.1849 36.599 74.8625L62.6988 60.0742C65.048 58.7431 66.5 56.2515 66.5 53.5513V24.2564C66.5 21.6103 65.1051 19.1602 62.8297 17.8095L36.7326 2.31861C34.3317 0.893458 31.3378 0.920542 28.963 2.38889L4.05431 17.7905C1.8448 19.1567 0.5 21.5693 0.5 24.1671Z" fill="#5677DD"/>
<path d="M44.819 22.085L52.9786 28.4158C53.2806 28.6501 53.4573 29.0108 53.4573 29.393V48.3139C53.4573 48.7635 53.2133 49.1776 52.8202 49.3956L40.2514 56.3645C39.427 56.8215 38.4148 56.2254 38.4148 55.2827V9.67328C38.4148 9.25351 38.2019 8.86238 37.8493 8.63451L33.6567 5.92448C33.2556 5.66522 32.7411 5.66004 32.3349 5.91116L6.0865 22.1374C5.72191 22.3628 5.5 22.7609 5.5 23.1895V54.7896C5.5 55.2295 5.73366 55.6363 6.11365 55.858L23.5 66" stroke="white" stroke-width="4.76594"/>
<path d="M46 13L60.8951 21.8758C61.2695 22.0989 61.4988 22.5025 61.4988 22.9383V54.1316C61.4988 54.5771 61.2593 54.9882 60.8717 55.2078L33.9689 70.451C33.4182 70.7631 32.7206 70.6089 32.3527 70.0938L30.7304 67.8225C30.5805 67.6128 30.5 67.3614 30.5 67.1036V20.5874C30.5 19.6476 29.4934 19.0512 28.6691 19.5025L13.4397 27.841C13.0433 28.058 12.7969 28.474 12.7969 28.9259V39.9033C12.7969 40.311 12.9977 40.6925 13.3339 40.9232L20.3926 45.7674L23.2832 47.6905C23.9199 48.1141 24.0235 49.0083 23.5004 49.5662L17 56.5" stroke="white" stroke-width="4.76594"/>
</svg>
