<svg width="14" height="11" viewBox="0 0 14 11" fill="none" xmlns="http://www.w3.org/2000/svg">
<g clip-path="url(#clip0_1824_6863)">
<path d="M5.60156 0.25H14.0016V10.75H5.60156V0.25Z" fill="#FF0000"/>
<path d="M0 0.25H5.6V10.75H0V0.25Z" fill="#006600"/>
<path fill-rule="evenodd" clip-rule="evenodd" d="M7.42422 6.94688C6.71766 6.925 3.48672 4.90812 3.46484 4.58437L3.64203 4.28906C3.96359 4.755 7.26672 6.71719 7.59266 6.64719L7.42422 6.94688Z" fill="#FFFF00" stroke="black" stroke-width="0.013125" stroke-linecap="round" stroke-linejoin="round"/>
<path fill-rule="evenodd" clip-rule="evenodd" d="M3.60527 4.24805C3.54184 4.41867 4.44965 4.97867 5.53902 5.64367C6.63059 6.30648 7.57121 6.71555 7.63902 6.65867L7.67184 6.59742C7.65871 6.6193 7.62809 6.62586 7.57777 6.61055C7.28246 6.52523 6.51465 6.17305 5.56309 5.59555C4.60934 5.01805 3.78246 4.48648 3.6534 4.26117C3.64334 4.24005 3.63882 4.21671 3.64027 4.19336H3.6359L3.60965 4.24148L3.60527 4.24805ZM7.43996 6.95617C7.42902 6.97805 7.40496 6.97805 7.3634 6.97367C7.1009 6.94523 6.30027 6.55586 5.35309 5.9893C4.25059 5.32867 3.34059 4.7293 3.44121 4.5718L3.46746 4.52367L3.47184 4.52586C3.38434 4.79273 5.26777 5.86898 5.37934 5.93898C6.46871 6.61273 7.38746 7.00867 7.4684 6.90586L7.43996 6.95617Z" fill="#FFFF00" stroke="black" stroke-width="0.013125" stroke-linecap="round" stroke-linejoin="round"/>
<path fill-rule="evenodd" clip-rule="evenodd" d="M5.60406 4.78094C6.30844 4.77437 7.17906 4.68469 7.68219 4.48344L7.57281 4.30844C7.2775 4.4725 6.4025 4.58188 5.5975 4.59719C4.64812 4.58844 3.97656 4.49875 3.63969 4.27344L3.53906 4.46156C4.15594 4.72406 4.79031 4.77875 5.60406 4.78094Z" fill="#FFFF00" stroke="black" stroke-width="0.013125" stroke-linecap="round" stroke-linejoin="round"/>
<path fill-rule="evenodd" clip-rule="evenodd" d="M7.71047 4.48797C7.69297 4.51641 7.36484 4.62797 6.88359 4.71109C6.45936 4.7754 6.03079 4.80685 5.60172 4.80516C5.19062 4.80671 4.77989 4.7804 4.37234 4.72641C3.86703 4.64766 3.60672 4.53828 3.50828 4.49891L3.53234 4.45078C3.81016 4.56016 4.07266 4.62578 4.37891 4.67391C4.78348 4.72853 5.19129 4.75557 5.59953 4.75484C6.02638 4.75527 6.45267 4.72383 6.87484 4.66078C7.36703 4.57984 7.63609 4.47703 7.67547 4.43109L7.71047 4.48797ZM7.61422 4.31078C7.56172 4.35453 7.29484 4.44859 6.82672 4.52297C6.42248 4.58147 6.01454 4.61071 5.60609 4.61047C5.12484 4.61047 4.72891 4.57547 4.42922 4.53172C3.95234 4.47047 3.69859 4.35672 3.60672 4.32609L3.63516 4.27797C3.70734 4.31516 3.95016 4.41359 4.43359 4.48141C4.82222 4.53346 5.21401 4.55831 5.60609 4.55578C6.01163 4.55591 6.41665 4.52666 6.81797 4.46828C7.28828 4.40266 7.54203 4.28453 7.58141 4.25391L7.61422 4.31078ZM3.28734 5.62984C3.72047 5.86391 4.68516 5.97984 5.59734 5.98859C6.42859 5.99078 7.50922 5.86172 7.91391 5.64734L7.90297 5.41328C7.77609 5.61016 6.61672 5.80047 5.58859 5.79391C4.56047 5.78516 3.60453 5.62766 3.28516 5.42203V5.62984" fill="#FFFF00"/>
<path d="M3.28734 5.62984C3.72047 5.86391 4.68516 5.97984 5.59734 5.98859C6.42859 5.99078 7.50922 5.86172 7.91391 5.64734L7.90297 5.41328C7.77609 5.61016 6.61672 5.80047 5.58859 5.79391C4.56047 5.78516 3.60453 5.62766 3.28516 5.42203V5.62984M7.71047 4.48797C7.69297 4.51641 7.36484 4.62797 6.88359 4.71109C6.45936 4.7754 6.03079 4.80685 5.60172 4.80516C5.19062 4.80671 4.77989 4.7804 4.37234 4.72641C3.86703 4.64766 3.60672 4.53828 3.50828 4.49891L3.53234 4.45078C3.81016 4.56016 4.07266 4.62578 4.37891 4.67391C4.78348 4.72853 5.19129 4.75557 5.59953 4.75484C6.02638 4.75527 6.45267 4.72383 6.87484 4.66078C7.36703 4.57984 7.63609 4.47703 7.67547 4.43109L7.71047 4.48797ZM7.61422 4.31078C7.56172 4.35453 7.29484 4.44859 6.82672 4.52297C6.42248 4.58147 6.01454 4.61071 5.60609 4.61047C5.12484 4.61047 4.72891 4.57547 4.42922 4.53172C3.95234 4.47047 3.69859 4.35672 3.60672 4.32609L3.63516 4.27797C3.70734 4.31516 3.95016 4.41359 4.43359 4.48141C4.82222 4.53346 5.21401 4.55831 5.60609 4.55578C6.01163 4.55591 6.41665 4.52666 6.81797 4.46828C7.28828 4.40266 7.54203 4.28453 7.58141 4.25391L7.61422 4.31078Z" stroke="black" stroke-width="0.013125" stroke-linecap="round" stroke-linejoin="round"/>
<path fill-rule="evenodd" clip-rule="evenodd" d="M7.93469 5.5982V5.65289C7.87344 5.72727 7.49281 5.83664 7.01594 5.91539C6.54217 5.98349 6.06393 6.01567 5.58531 6.01164C5.13147 6.01551 4.67802 5.98406 4.22906 5.91758C3.89406 5.87887 3.56671 5.79039 3.25781 5.65508V5.59164C3.47 5.73164 4.04312 5.83664 4.23562 5.86727C4.58125 5.91977 5.02531 5.95914 5.58531 5.95914C6.17375 5.95914 6.64406 5.91758 7.00719 5.86289C7.35062 5.81258 7.83844 5.68352 7.93469 5.5982ZM7.93469 5.40133V5.45602C7.87344 5.5282 7.49281 5.63758 7.01594 5.71633C6.54223 5.78516 6.06399 5.81807 5.58531 5.81477C5.13151 5.81744 4.67815 5.78599 4.22906 5.7207C3.89406 5.68199 3.56671 5.59352 3.25781 5.4582V5.39258C3.47 5.53477 4.04531 5.63758 4.23562 5.6682C4.68249 5.73366 5.13368 5.76511 5.58531 5.76227C6.17375 5.76227 6.64625 5.71852 7.00719 5.66383C7.35062 5.6157 7.83844 5.48664 7.93469 5.40133ZM5.59406 6.90633C4.59656 6.90195 3.74125 6.63508 3.55969 6.59133L3.69094 6.79695C4.30451 7.01426 4.95198 7.1202 5.60281 7.10977C6.36188 7.08789 7.02469 7.02883 7.49062 6.80133L7.62625 6.58695C7.30906 6.73789 6.22625 6.90633 5.59187 6.90633" fill="#FFFF00"/>
<path d="M5.59406 6.90633C4.59656 6.90195 3.74125 6.63508 3.55969 6.59133L3.69094 6.79695C4.30451 7.01426 4.95198 7.1202 5.60281 7.10977C6.36188 7.08789 7.02469 7.02883 7.49062 6.80133L7.62625 6.58695C7.30906 6.73789 6.22625 6.90633 5.59187 6.90633M7.93469 5.5982V5.65289C7.87344 5.72727 7.49281 5.83664 7.01594 5.91539C6.54217 5.98349 6.06393 6.01567 5.58531 6.01164C5.13147 6.01551 4.67802 5.98406 4.22906 5.91758C3.89406 5.87887 3.56671 5.79039 3.25781 5.65508V5.59164C3.47 5.73164 4.04312 5.83664 4.23562 5.86727C4.58125 5.91977 5.02531 5.95914 5.58531 5.95914C6.17375 5.95914 6.64406 5.91758 7.00719 5.86289C7.35062 5.81258 7.83844 5.68352 7.93469 5.5982ZM7.93469 5.40133V5.45602C7.87344 5.5282 7.49281 5.63758 7.01594 5.71633C6.54223 5.78516 6.06399 5.81807 5.58531 5.81477C5.13151 5.81744 4.67815 5.78599 4.22906 5.7207C3.89406 5.68199 3.56671 5.59352 3.25781 5.4582V5.39258C3.47 5.53477 4.04531 5.63758 4.23562 5.6682C4.68249 5.73366 5.13368 5.76511 5.58531 5.76227C6.17375 5.76227 6.64625 5.71852 7.00719 5.66383C7.35062 5.6157 7.83844 5.48664 7.93469 5.40133Z" stroke="black" stroke-width="0.013125" stroke-linecap="round" stroke-linejoin="round"/>
<path fill-rule="evenodd" clip-rule="evenodd" d="M7.54234 6.75328C7.52243 6.78279 7.50201 6.81197 7.48109 6.84078C7.26234 6.91953 6.91234 7.00266 6.76797 7.02453C6.38056 7.09672 5.98736 7.13333 5.59328 7.13391C4.70953 7.12078 3.98547 6.94797 3.64641 6.79922L3.61797 6.75328L3.62234 6.74453L3.66828 6.76422C4.29085 6.97024 4.9419 7.07727 5.59766 7.08141C6.00891 7.08141 6.41797 7.03547 6.74828 6.97641C7.25578 6.87359 7.46141 6.79703 7.52484 6.76203L7.54016 6.75328H7.54234ZM7.65828 6.56078C7.64388 6.5864 7.62929 6.61193 7.61453 6.63734C7.49641 6.68109 7.17703 6.77297 6.71109 6.83859C6.40484 6.88016 6.21453 6.92172 5.60422 6.93266C4.90654 6.92565 4.21315 6.8226 3.54359 6.62641L3.51953 6.57172C4.19981 6.75973 4.90079 6.8626 5.60641 6.87797C6.16422 6.86703 6.40266 6.82547 6.70672 6.78391C7.24922 6.70078 7.52266 6.60891 7.60359 6.58484C7.60364 6.58339 7.60364 6.58193 7.60359 6.58047L7.66047 6.55859L7.65828 6.56078Z" fill="#FFFF00" stroke="black" stroke-width="0.013125" stroke-linecap="round" stroke-linejoin="round"/>
<path fill-rule="evenodd" clip-rule="evenodd" d="M7.67328 5.4475C7.67547 6.10375 7.3386 6.69437 7.06954 6.9525C6.67214 7.34008 6.14145 7.56081 5.58641 7.56938C4.9236 7.58031 4.30016 7.14938 4.13172 6.95906C3.75491 6.55946 3.54045 6.03383 3.53016 5.48469C3.56953 4.76719 3.85172 4.26844 4.2586 3.925C4.65384 3.59962 5.15105 3.42382 5.66297 3.42844C5.96181 3.44293 6.25433 3.51968 6.52178 3.65378C6.78923 3.78789 7.02572 3.97638 7.2161 4.20719C7.48953 4.53969 7.60985 4.90063 7.67328 5.4475ZM5.59079 3.20313C6.20274 3.20311 6.78988 3.445 7.22423 3.87607C7.65858 4.30714 7.90492 4.89244 7.90953 5.50437C7.90953 5.80802 7.84973 6.10868 7.73353 6.38921C7.61733 6.66974 7.44702 6.92463 7.23231 7.13934C7.0176 7.35404 6.76271 7.52436 6.48218 7.64056C6.20166 7.75676 5.90099 7.81656 5.59735 7.81656C5.29371 7.81656 4.99304 7.75676 4.71251 7.64056C4.43198 7.52436 4.17709 7.35404 3.96238 7.13934C3.74768 6.92463 3.57736 6.66974 3.46116 6.38921C3.34497 6.10868 3.28516 5.80802 3.28516 5.50437C3.28297 4.23562 4.31985 3.20313 5.59079 3.20313Z" fill="#FFFF00" stroke="black" stroke-width="0.013125" stroke-linecap="round" stroke-linejoin="round"/>
<path fill-rule="evenodd" clip-rule="evenodd" d="M5.59687 3.19141C6.87 3.19141 7.90688 4.22828 7.90688 5.50141C7.90688 6.77453 6.87 7.81141 5.59906 7.81141C4.32813 7.81141 3.28906 6.77453 3.28906 5.50141C3.28906 4.22828 4.32594 3.19141 5.59906 3.19141H5.59687ZM3.33719 5.49922C3.33719 6.74172 4.35875 7.75891 5.59687 7.75891C6.835 7.75891 7.85656 6.74172 7.85656 5.49922C7.85656 4.25672 6.835 3.23953 5.59687 3.23953C4.35875 3.23953 3.33719 4.25672 3.33719 5.49922Z" fill="#FFFF00" stroke="black" stroke-width="0.013125" stroke-linecap="round" stroke-linejoin="round"/>
<path fill-rule="evenodd" clip-rule="evenodd" d="M5.59969 3.38477C6.16017 3.3865 6.6972 3.60991 7.09353 4.00624C7.48985 4.40256 7.71327 4.93959 7.715 5.50008C7.71327 6.06076 7.48992 6.59802 7.09366 6.9947C6.6974 7.39137 6.16037 7.61527 5.59969 7.61758C4.44031 7.61758 3.48438 6.66383 3.48438 5.50008C3.48668 4.93977 3.71028 4.40307 4.10648 4.00687C4.50268 3.61067 5.03938 3.38707 5.59969 3.38477ZM3.53469 5.50008C3.53469 6.63758 4.46656 7.56508 5.59969 7.56508C6.73281 7.56508 7.66469 6.63539 7.66469 5.50008C7.66469 4.36258 6.73281 3.43508 5.59969 3.43508C5.05272 3.43738 4.52882 3.65568 4.14206 4.04245C3.75529 4.42921 3.53699 4.95312 3.53469 5.50008Z" fill="#FFFF00" stroke="black" stroke-width="0.013125" stroke-linecap="round" stroke-linejoin="round"/>
<path fill-rule="evenodd" clip-rule="evenodd" d="M5.69125 3.17969H5.49219V7.82375H5.68906L5.69125 3.17969Z" fill="#FFFF00" stroke="black" stroke-width="0.013125" stroke-linecap="round" stroke-linejoin="round"/>
<path fill-rule="evenodd" clip-rule="evenodd" d="M5.66953 3.1543H5.71984V7.85086H5.67172V3.1543H5.66953ZM5.47266 3.1543H5.52516V7.85086H5.47484L5.47266 3.1543Z" fill="#FFFF00" stroke="black" stroke-width="0.013125" stroke-linecap="round" stroke-linejoin="round"/>
<path fill-rule="evenodd" clip-rule="evenodd" d="M7.90828 5.5907V5.42008L7.76828 5.28883L6.97422 5.07883L5.83234 4.96289L4.45422 5.03289L3.47422 5.26477L3.27734 5.41133V5.58414L3.77828 5.35883L4.96828 5.17289H6.11234L6.95234 5.26477L7.53422 5.40477L7.90828 5.5907Z" fill="#FFFF00" stroke="black" stroke-width="0.013125" stroke-linecap="round" stroke-linejoin="round"/>
<path fill-rule="evenodd" clip-rule="evenodd" d="M5.59844 5.14535C6.14313 5.14535 6.67031 5.19566 7.0925 5.2766C7.52562 5.3641 7.82969 5.47347 7.93469 5.59378V5.65503C7.80781 5.50191 7.39875 5.39253 7.08156 5.32691C6.66594 5.24816 6.14094 5.19566 5.59625 5.19566C5.02531 5.19566 4.49156 5.25253 4.08031 5.33128C3.75219 5.39691 3.3125 5.52816 3.25781 5.65503V5.5916C3.28625 5.5041 3.61438 5.37285 4.07375 5.27878C4.48719 5.19785 5.02094 5.14535 5.59625 5.14535H5.59844ZM5.59844 4.94628C6.09938 4.94528 6.5994 4.98921 7.0925 5.07753C7.52562 5.16503 7.82969 5.27441 7.93469 5.39691V5.45597C7.80781 5.30503 7.39875 5.19347 7.08156 5.13003C6.66594 5.0491 6.14094 4.99878 5.59625 4.99878C5.08856 4.99718 4.58182 5.04258 4.0825 5.13441C3.76531 5.19347 3.30812 5.3291 3.25781 5.45597V5.39472C3.28844 5.30722 3.62094 5.16941 4.07375 5.08191C4.48937 5.00097 5.02094 4.94628 5.59844 4.94628ZM5.58531 3.93566C6.445 3.93128 7.19531 4.05597 7.53875 4.23097L7.66344 4.44972C7.36594 4.28785 6.55656 4.1216 5.5875 4.14347C4.79781 4.15003 3.95344 4.23097 3.53125 4.45847L3.68 4.2091C4.02781 4.02753 4.84594 3.93566 5.58531 3.93566Z" fill="#FFFF00" stroke="black" stroke-width="0.013125" stroke-linecap="round" stroke-linejoin="round"/>
<path fill-rule="evenodd" clip-rule="evenodd" d="M5.59812 4.11554C6.04699 4.10797 6.49565 4.13944 6.93906 4.2096C7.28906 4.27523 7.62375 4.37148 7.67188 4.42398L7.70906 4.4896C7.59313 4.41523 7.30219 4.32992 6.93031 4.25992C6.55844 4.18992 6.08375 4.16585 5.59594 4.16804C5.0425 4.16585 4.61156 4.19429 4.24406 4.25992C3.99073 4.29542 3.74476 4.3715 3.51562 4.48523L3.55281 4.41742C3.68406 4.35179 3.8875 4.27085 4.23313 4.20742C4.61594 4.13742 5.05125 4.11773 5.59812 4.11554ZM5.59812 3.91867C6.06625 3.91429 6.53 3.94054 6.89094 4.00617C7.12479 4.04089 7.35109 4.11484 7.56031 4.22492L7.615 4.31242C7.52313 4.2096 7.1775 4.11117 6.86906 4.05867C6.51031 3.99523 6.06625 3.97117 5.59812 3.96679C5.16236 3.96291 4.72702 3.9951 4.29656 4.06304C4.07149 4.0944 3.85288 4.16161 3.64906 4.2621L3.69719 4.18992C3.82406 4.12429 4.02969 4.06304 4.28781 4.01273C4.7211 3.9439 5.15943 3.9117 5.59812 3.91648V3.91867ZM6.74437 6.46273C6.36522 6.39708 5.98066 6.36778 5.59594 6.37523C4.16312 6.39273 3.70156 6.67054 3.64469 6.75367L3.53531 6.57867C3.90281 6.31617 4.68156 6.16742 5.60469 6.18054C6.08375 6.18929 6.49719 6.2221 6.84281 6.28992L6.74437 6.46492" fill="#FFFF00"/>
<path d="M6.74438 6.46273C6.36522 6.39708 5.98066 6.36778 5.59594 6.37523C4.16312 6.39273 3.70156 6.67054 3.64469 6.75367L3.53531 6.57867C3.90281 6.31617 4.68156 6.16742 5.60469 6.18054C6.08375 6.18929 6.49719 6.2221 6.84281 6.28992L6.74438 6.46492M5.59813 4.11554C6.04699 4.10797 6.49565 4.13944 6.93906 4.2096C7.28906 4.27523 7.62375 4.37148 7.67187 4.42398L7.70906 4.4896C7.59313 4.41523 7.30219 4.32992 6.93031 4.25992C6.55844 4.18992 6.08375 4.16585 5.59594 4.16804C5.0425 4.16585 4.61156 4.19429 4.24406 4.25992C3.99073 4.29542 3.74476 4.3715 3.51562 4.48523L3.55281 4.41742C3.68406 4.35179 3.8875 4.27085 4.23313 4.20742C4.61594 4.13742 5.05125 4.11773 5.59813 4.11554ZM5.59813 3.91867C6.06625 3.91429 6.53 3.94054 6.89094 4.00617C7.12479 4.04089 7.35109 4.11484 7.56031 4.22492L7.615 4.31242C7.52313 4.2096 7.1775 4.11117 6.86906 4.05867C6.51031 3.99523 6.06625 3.97117 5.59813 3.96679C5.16236 3.96291 4.72702 3.9951 4.29656 4.06304C4.07149 4.0944 3.85288 4.16161 3.64906 4.2621L3.69719 4.18992C3.82406 4.12429 4.02969 4.06304 4.28781 4.01273C4.7211 3.9439 5.15943 3.9117 5.59813 3.91648V3.91867Z" stroke="black" stroke-width="0.013125" stroke-linecap="round" stroke-linejoin="round"/>
<path fill-rule="evenodd" clip-rule="evenodd" d="M5.59109 6.34969C5.98922 6.35625 6.37859 6.37157 6.75703 6.44157L6.73078 6.48969C6.38078 6.42407 6.00453 6.40219 5.59328 6.40219C5.06172 6.39782 4.52797 6.44813 4.06203 6.58157C3.91547 6.62313 3.67266 6.71719 3.64641 6.79594L3.62016 6.75219C3.62891 6.70407 3.77328 6.60782 4.04891 6.53344C4.58266 6.38032 5.08141 6.35188 5.59109 6.34969ZM5.60859 6.14844C6.02881 6.14801 6.44824 6.18461 6.86203 6.25782L6.83359 6.30813C6.42953 6.23401 6.01939 6.19812 5.60859 6.20094C5.07922 6.20094 4.51703 6.24032 4.00516 6.38907C3.84109 6.43719 3.55453 6.54219 3.54578 6.62313L3.51953 6.575C3.52391 6.50063 3.77109 6.40219 3.99422 6.33875C4.50828 6.18782 5.07266 6.15063 5.60859 6.14844Z" fill="#FFFF00" stroke="black" stroke-width="0.013125" stroke-linecap="round" stroke-linejoin="round"/>
<path fill-rule="evenodd" clip-rule="evenodd" d="M7.63969 6.60398L7.46906 6.87305L6.9725 6.43336L5.69062 5.5693L4.2425 4.77523L3.49219 4.5193L3.65188 4.2218L3.70656 4.19336L4.1725 4.3093L5.7125 5.10336L6.60062 5.66336L7.34656 6.1993L7.65062 6.5493L7.63969 6.60398Z" fill="#FFFF00" stroke="black" stroke-width="0.013125" stroke-linecap="round" stroke-linejoin="round"/>
<path fill-rule="evenodd" clip-rule="evenodd" d="M3.46594 4.52679C3.59719 4.43929 4.56406 4.86804 5.57906 5.48054C6.5875 6.09304 7.55438 6.78429 7.46688 6.91335L7.43844 6.95929L7.42531 6.97023C7.4275 6.96804 7.44281 6.94835 7.42531 6.90242C7.38156 6.76023 6.69469 6.21335 5.55938 5.52648C4.45031 4.86804 3.52719 4.46992 3.4375 4.58367L3.46594 4.52679ZM7.67469 6.60273C7.75781 6.43648 6.86094 5.76054 5.7475 5.1021C4.61 4.45679 3.7875 4.07617 3.63656 4.18992L3.60594 4.25335C3.60594 4.25554 3.60594 4.24898 3.61469 4.24242C3.64094 4.22054 3.68688 4.22054 3.70656 4.22054C3.96469 4.22492 4.70187 4.56398 5.73656 5.15679C6.19156 5.41929 7.65281 6.35992 7.64625 6.62242C7.64625 6.64429 7.64844 6.64867 7.63969 6.66179L7.67688 6.60492L7.67469 6.60273Z" fill="#FFFF00" stroke="black" stroke-width="0.013125" stroke-linecap="round" stroke-linejoin="round"/>
<path d="M4.21484 5.75659C4.21519 5.93772 4.25146 6.11698 4.32155 6.28399C4.39164 6.45101 4.49416 6.60246 4.62318 6.72959C4.75062 6.859 4.90242 6.96191 5.06981 7.03239C5.2372 7.10287 5.41689 7.13953 5.59851 7.14026C5.9661 7.14023 6.31861 6.99419 6.57852 6.73426C6.70708 6.60643 6.80913 6.45446 6.8788 6.28709C6.94847 6.11971 6.9844 5.94022 6.98452 5.75892V3.91092L4.21484 3.90625V5.75659Z" fill="white" stroke="black" stroke-width="0.0163334"/>
<path d="M4.26953 5.7588C4.27002 5.93255 4.30492 6.10448 4.3722 6.26467C4.43948 6.42486 4.53781 6.57015 4.66153 6.69214C4.90995 6.94186 5.24729 7.08284 5.59954 7.08414C5.95116 7.08433 6.2885 6.94503 6.53754 6.69681C6.66083 6.57462 6.75874 6.42925 6.82562 6.26907C6.89249 6.10888 6.92702 5.93705 6.92721 5.76347V3.9668H4.26953V5.7588ZM6.39287 4.5058V5.6468L6.39054 5.7658C6.39132 5.87004 6.37106 5.97337 6.33097 6.06959C6.29088 6.16582 6.23177 6.25296 6.1572 6.3258C6.00882 6.4747 5.80741 6.55862 5.5972 6.55914C5.37787 6.55914 5.1842 6.4658 5.03953 6.32114C4.89064 6.17276 4.80671 5.97134 4.8062 5.76114V4.50113L6.39287 4.5058Z" fill="#FF0000" stroke="black" stroke-width="0.0116667"/>
<path d="M4.4375 4.43601C4.43983 4.30768 4.53083 4.27734 4.53083 4.27734C4.53317 4.27734 4.63117 4.31001 4.63117 4.43834L4.4375 4.43601Z" fill="#FFFF00"/>
<path d="M4.35765 4.27968L4.34131 4.42668H4.43931C4.43931 4.30534 4.53265 4.28668 4.53265 4.28668C4.53498 4.28668 4.62598 4.31234 4.62831 4.42668H4.72631L4.70765 4.27734L4.35765 4.27968ZM4.33431 4.42901H4.73098C4.73798 4.42901 4.74498 4.43601 4.74498 4.44534C4.74498 4.45701 4.73798 4.46401 4.73098 4.46401H4.33431C4.32731 4.46401 4.32031 4.45701 4.32031 4.44534C4.32031 4.43601 4.32731 4.42901 4.33665 4.42901H4.33431Z" fill="#FFFF00" stroke="black" stroke-width="0.0116667"/>
<path d="M4.47746 4.42662C4.47746 4.34962 4.53113 4.32862 4.53113 4.32862C4.53113 4.32862 4.58479 4.35195 4.58479 4.42662H4.47746ZM4.34212 4.21662H4.72246C4.72946 4.21662 4.73646 4.22595 4.73646 4.23529C4.73646 4.24229 4.72946 4.24929 4.72246 4.24929H4.34212C4.33512 4.24929 4.32812 4.24229 4.32812 4.23295C4.32812 4.22595 4.33512 4.21895 4.34212 4.21895V4.21662ZM4.35146 4.25162H4.71079C4.71779 4.25162 4.72479 4.25862 4.72479 4.26795C4.72479 4.27729 4.71779 4.28429 4.71079 4.28429H4.34912C4.33979 4.28429 4.33512 4.27729 4.33512 4.26795C4.33512 4.25862 4.33979 4.25162 4.34912 4.25162H4.35146ZM4.46813 4.00429H4.49613V4.02295H4.51713V4.00429H4.54746V4.02529H4.56846V4.00195H4.59646V4.04862C4.59646 4.05795 4.59179 4.06262 4.58479 4.06262H4.48213C4.47513 4.06262 4.46813 4.05795 4.46813 4.05095V4.00429ZM4.57546 4.06729L4.58246 4.21662H4.48213L4.48913 4.06495H4.57546" fill="#FFFF00"/>
<path d="M4.57546 4.06729L4.58246 4.21662H4.48213L4.48913 4.06495H4.57546M4.47746 4.42662C4.47746 4.34962 4.53113 4.32862 4.53113 4.32862C4.53113 4.32862 4.58479 4.35195 4.58479 4.42662H4.47746ZM4.34212 4.21662H4.72246C4.72946 4.21662 4.73646 4.22595 4.73646 4.23529C4.73646 4.24229 4.72946 4.24929 4.72246 4.24929H4.34212C4.33512 4.24929 4.32812 4.24229 4.32812 4.23295C4.32812 4.22595 4.33512 4.21895 4.34212 4.21895V4.21662ZM4.35146 4.25162H4.71079C4.71779 4.25162 4.72479 4.25862 4.72479 4.26795C4.72479 4.27729 4.71779 4.28429 4.71079 4.28429H4.34912C4.33979 4.28429 4.33512 4.27729 4.33512 4.26795C4.33512 4.25862 4.33979 4.25162 4.34912 4.25162H4.35146ZM4.46813 4.00429H4.49613V4.02295H4.51713V4.00429H4.54746V4.02529H4.56846V4.00195H4.59646V4.04862C4.59646 4.05795 4.59179 4.06262 4.58479 4.06262H4.48213C4.47513 4.06262 4.46813 4.05795 4.46813 4.05095V4.00429Z" stroke="black" stroke-width="0.0116667"/>
<path d="M4.45661 4.13672V4.21605H4.36328V4.13672H4.45661Z" fill="#FFFF00" stroke="black" stroke-width="0.0116667"/>
<path d="M4.70271 4.13672V4.21605H4.60938V4.13672H4.70271Z" fill="#FFFF00" stroke="black" stroke-width="0.0116667"/>
<path d="M4.34766 4.07617H4.37566V4.09951H4.39666V4.07617H4.42466V4.09951H4.44566V4.07617H4.47366V4.12284C4.47366 4.13217 4.46899 4.13684 4.46199 4.13684H4.36166C4.35794 4.13684 4.35438 4.13536 4.35176 4.13274C4.34913 4.13011 4.34766 4.12655 4.34766 4.12284V4.07617Z" fill="#FFFF00" stroke="black" stroke-width="0.0116667"/>
<path d="M4.59375 4.07617H4.62175V4.09951H4.64275V4.07617H4.67075V4.09951H4.69175V4.07617H4.71975V4.12284C4.71975 4.13217 4.71508 4.13684 4.70808 4.13684H4.60775C4.60404 4.13684 4.60048 4.13536 4.59785 4.13274C4.59522 4.13011 4.59375 4.12655 4.59375 4.12284V4.07617Z" fill="#FFFF00" stroke="black" stroke-width="0.0116667"/>
<path d="M4.52344 4.11402C4.52344 4.10002 4.54444 4.10002 4.54444 4.11402V4.15135H4.52344V4.11402Z" fill="#000001"/>
<path d="M4.39844 4.1648C4.39844 4.1508 4.4171 4.1508 4.4171 4.1648V4.1928H4.39844V4.1648Z" fill="#000001"/>
<path d="M4.64844 4.1648C4.64844 4.1508 4.6671 4.1508 4.6671 4.1648V4.1928H4.64844V4.1648Z" fill="#000001"/>
<path d="M4.4375 5.51609C4.43983 5.38776 4.53083 5.35742 4.53083 5.35742C4.53317 5.35742 4.63117 5.39009 4.63117 5.51842L4.4375 5.51609Z" fill="#FFFF00"/>
<path d="M4.35765 5.35976L4.34131 5.50676H4.43931C4.43931 5.38542 4.53265 5.36676 4.53265 5.36676C4.53498 5.36676 4.62598 5.39242 4.62831 5.50676H4.72631L4.70765 5.35742L4.35765 5.35976ZM4.33431 5.50909H4.73098C4.73798 5.50909 4.74498 5.51609 4.74498 5.52542C4.74498 5.53709 4.73798 5.54409 4.73098 5.54409H4.33431C4.32731 5.54409 4.32031 5.53709 4.32031 5.52542C4.32031 5.51609 4.32731 5.50909 4.33665 5.50909H4.33431Z" fill="#FFFF00" stroke="black" stroke-width="0.0116667"/>
<path d="M4.47746 5.5067C4.47746 5.4297 4.53113 5.4087 4.53113 5.4087C4.53113 5.4087 4.58479 5.43203 4.58479 5.5067H4.47746ZM4.34212 5.2967H4.72246C4.72946 5.2967 4.73646 5.30603 4.73646 5.31537C4.73646 5.32237 4.72946 5.32937 4.72246 5.32937H4.34212C4.33512 5.32937 4.32812 5.32237 4.32812 5.31303C4.32812 5.30603 4.33512 5.29903 4.34212 5.29903V5.2967ZM4.35146 5.3317H4.71079C4.71779 5.3317 4.72479 5.3387 4.72479 5.34803C4.72479 5.35737 4.71779 5.36437 4.71079 5.36437H4.34912C4.33979 5.36437 4.33512 5.35737 4.33512 5.34803C4.33512 5.3387 4.33979 5.3317 4.34912 5.3317H4.35146ZM4.46813 5.08436H4.49613V5.10303H4.51713V5.08436H4.54746V5.10536H4.56846V5.08203H4.59646V5.1287C4.59646 5.13803 4.59179 5.1427 4.58479 5.1427H4.48213C4.47513 5.1427 4.46813 5.13803 4.46813 5.13103V5.08436ZM4.57546 5.14736L4.58246 5.2967H4.48213L4.48913 5.14503H4.57546" fill="#FFFF00"/>
<path d="M4.57546 5.14736L4.58246 5.2967H4.48213L4.48913 5.14503H4.57546M4.47746 5.5067C4.47746 5.4297 4.53113 5.4087 4.53113 5.4087C4.53113 5.4087 4.58479 5.43203 4.58479 5.5067H4.47746ZM4.34212 5.2967H4.72246C4.72946 5.2967 4.73646 5.30603 4.73646 5.31537C4.73646 5.32237 4.72946 5.32937 4.72246 5.32937H4.34212C4.33512 5.32937 4.32812 5.32237 4.32812 5.31303C4.32812 5.30603 4.33512 5.29903 4.34212 5.29903V5.2967ZM4.35146 5.3317H4.71079C4.71779 5.3317 4.72479 5.3387 4.72479 5.34803C4.72479 5.35737 4.71779 5.36437 4.71079 5.36437H4.34912C4.33979 5.36437 4.33512 5.35737 4.33512 5.34803C4.33512 5.3387 4.33979 5.3317 4.34912 5.3317H4.35146ZM4.46813 5.08436H4.49613V5.10303H4.51713V5.08436H4.54746V5.10536H4.56846V5.08203H4.59646V5.1287C4.59646 5.13803 4.59179 5.1427 4.58479 5.1427H4.48213C4.47513 5.1427 4.46813 5.13803 4.46813 5.13103V5.08436Z" stroke="black" stroke-width="0.0116667"/>
<path d="M4.45661 5.2168V5.29613H4.36328V5.2168H4.45661Z" fill="#FFFF00" stroke="black" stroke-width="0.0116667"/>
<path d="M4.70271 5.2168V5.29613H4.60938V5.2168H4.70271Z" fill="#FFFF00" stroke="black" stroke-width="0.0116667"/>
<path d="M4.34766 5.15625H4.37566V5.17958H4.39666V5.15625H4.42466V5.17958H4.44566V5.15625H4.47366V5.20292C4.47366 5.21225 4.46899 5.21692 4.46199 5.21692H4.36166C4.35794 5.21692 4.35438 5.21544 4.35176 5.21282C4.34913 5.21019 4.34766 5.20663 4.34766 5.20292V5.15625Z" fill="#FFFF00" stroke="black" stroke-width="0.0116667"/>
<path d="M4.59375 5.15625H4.62175V5.17958H4.64275V5.15625H4.67075V5.17958H4.69175V5.15625H4.71975V5.20292C4.71975 5.21225 4.71508 5.21692 4.70808 5.21692H4.60775C4.60404 5.21692 4.60048 5.21544 4.59785 5.21282C4.59522 5.21019 4.59375 5.20663 4.59375 5.20292V5.15625Z" fill="#FFFF00" stroke="black" stroke-width="0.0116667"/>
<path d="M4.52344 5.19409C4.52344 5.18009 4.54444 5.18009 4.54444 5.19409V5.23143H4.52344V5.19409Z" fill="#000001"/>
<path d="M4.39844 5.24488C4.39844 5.23087 4.4171 5.23087 4.4171 5.24488V5.27288H4.39844V5.24488Z" fill="#000001"/>
<path d="M4.64844 5.24488C4.64844 5.23087 4.6671 5.23087 4.6671 5.24488V5.27288H4.64844V5.24488Z" fill="#000001"/>
<path d="M4.85868 6.64305C4.76926 6.55097 4.81186 6.46502 4.81186 6.46502C4.8135 6.46337 4.90574 6.41685 4.9968 6.50728L4.85868 6.64305Z" fill="#FFFF00"/>
<path d="M4.69202 6.58843L4.78482 6.70361L4.85388 6.63407C4.76778 6.54857 4.8203 6.46919 4.8203 6.46919C4.82195 6.46754 4.90428 6.42105 4.98705 6.49996L5.05611 6.43042L4.93699 6.33844L4.69202 6.58843ZM4.78155 6.71022L5.06105 6.42875C5.06598 6.42379 5.07588 6.42375 5.08251 6.43033C5.09078 6.43855 5.09082 6.44845 5.08589 6.45342L4.80638 6.73488C4.80145 6.73985 4.79155 6.73988 4.78327 6.73166C4.77665 6.72508 4.77661 6.71518 4.78319 6.70856L4.78155 6.71022Z" fill="#FFFF00" stroke="black" stroke-width="0.0116667"/>
<path d="M4.88312 6.60734C4.82848 6.55308 4.8514 6.5002 4.8514 6.5002C4.8514 6.5002 4.90577 6.47856 4.95875 6.53117L4.88312 6.60734ZM4.63875 6.55539L4.90675 6.28552C4.91168 6.28055 4.92323 6.28216 4.92986 6.28874C4.93482 6.29367 4.93486 6.30357 4.92992 6.30853L4.66193 6.57841C4.657 6.58338 4.6471 6.58341 4.64047 6.57683C4.63551 6.5719 4.63547 6.562 4.6404 6.55703L4.63875 6.55539ZM4.67016 6.57343L4.92336 6.31846C4.92829 6.31349 4.93819 6.31346 4.94481 6.32003C4.95144 6.32661 4.95147 6.33651 4.94654 6.34147L4.6917 6.5981C4.68512 6.60473 4.67686 6.60311 4.67024 6.59653C4.66362 6.58995 4.66194 6.58171 4.66852 6.57509L4.67016 6.57343ZM4.57687 6.31637L4.5966 6.2965L4.60984 6.30965L4.62464 6.29475L4.61139 6.2816L4.63277 6.26007L4.64767 6.27487L4.66247 6.25997L4.64591 6.24353L4.66564 6.22366L4.69875 6.25654C4.70538 6.26312 4.7054 6.26972 4.70047 6.27469L4.62812 6.34754C4.62319 6.3525 4.61495 6.35418 4.60998 6.34925L4.57687 6.31637ZM4.6972 6.2846L4.8081 6.38486L4.7374 6.45605L4.63471 6.34421L4.69555 6.28295" fill="#FFFF00"/>
<path d="M4.6972 6.2846L4.8081 6.38486L4.7374 6.45605L4.63471 6.34421L4.69555 6.28295M4.88312 6.60734C4.82848 6.55308 4.8514 6.5002 4.8514 6.5002C4.8514 6.5002 4.90577 6.47856 4.95875 6.53117L4.88312 6.60734ZM4.63875 6.55539L4.90675 6.28552C4.91168 6.28055 4.92323 6.28216 4.92986 6.28874C4.93482 6.29367 4.93486 6.30357 4.92992 6.30853L4.66193 6.57841C4.657 6.58338 4.6471 6.58341 4.64047 6.57683C4.63551 6.5719 4.63547 6.562 4.6404 6.55703L4.63875 6.55539ZM4.67016 6.57343L4.92336 6.31846C4.92829 6.31349 4.93819 6.31346 4.94481 6.32003C4.95144 6.32661 4.95147 6.33651 4.94654 6.34147L4.6917 6.5981C4.68512 6.60473 4.67686 6.60311 4.67024 6.59653C4.66362 6.58995 4.66194 6.58171 4.66852 6.57509L4.67016 6.57343ZM4.57687 6.31637L4.5966 6.2965L4.60984 6.30965L4.62464 6.29475L4.61139 6.2816L4.63277 6.26007L4.64767 6.27487L4.66247 6.25997L4.64591 6.24353L4.66564 6.22366L4.69875 6.25654C4.70538 6.26312 4.7054 6.26972 4.70047 6.27469L4.62812 6.34754C4.62319 6.3525 4.61495 6.35418 4.60998 6.34925L4.57687 6.31637Z" stroke="black" stroke-width="0.0116667"/>
<path d="M4.65952 6.4201L4.71581 6.476L4.65004 6.54223L4.59375 6.48633L4.65952 6.4201Z" fill="#FFFF00" stroke="black" stroke-width="0.0116667"/>
<path d="M4.8353 6.24432L4.89159 6.30022L4.82582 6.36645L4.76953 6.31055L4.8353 6.24432Z" fill="#FFFF00" stroke="black" stroke-width="0.0116667"/>
<path d="M4.53906 6.45508L4.55879 6.43521L4.57535 6.45165L4.59015 6.43675L4.57359 6.42031L4.59332 6.40044L4.60988 6.41688L4.62467 6.40198L4.60812 6.38554L4.62785 6.36567L4.66096 6.39856C4.66758 6.40513 4.66761 6.41173 4.66267 6.4167L4.59197 6.48789C4.58936 6.49053 4.5858 6.49201 4.58209 6.49203C4.57838 6.49204 4.57481 6.49058 4.57218 6.48796L4.53906 6.45508Z" fill="#FFFF00" stroke="black" stroke-width="0.0116667"/>
<path d="M4.71484 6.2793L4.73457 6.25943L4.75113 6.27587L4.76593 6.26097L4.74937 6.24453L4.7691 6.22466L4.78566 6.2411L4.80045 6.2262L4.7839 6.20976L4.80363 6.18989L4.83674 6.22277C4.84336 6.22935 4.84339 6.23595 4.83845 6.24092L4.76776 6.31211C4.76514 6.31475 4.76158 6.31623 4.75787 6.31625C4.75416 6.31626 4.75059 6.3148 4.74796 6.31218L4.71484 6.2793Z" fill="#FFFF00" stroke="black" stroke-width="0.0116667"/>
<path d="M4.69104 6.35505C4.68111 6.34519 4.69591 6.33029 4.70584 6.34015L4.73233 6.36646L4.71753 6.38136L4.69104 6.35505Z" fill="#000001"/>
<path d="M4.64026 6.4781C4.63033 6.46824 4.64348 6.45499 4.65342 6.46486L4.67328 6.48459L4.66013 6.49783L4.64026 6.4781Z" fill="#000001"/>
<path d="M4.81604 6.30232C4.80611 6.29246 4.81926 6.27921 4.8292 6.28908L4.84907 6.30881L4.83591 6.32205L4.81604 6.30232Z" fill="#000001"/>
<path d="M5.50391 4.43601C5.50624 4.30768 5.59724 4.27734 5.59724 4.27734C5.59957 4.27734 5.69757 4.31001 5.69757 4.43834L5.50391 4.43601Z" fill="#FFFF00"/>
<path d="M5.42405 4.27968L5.40772 4.42668H5.50572C5.50572 4.30534 5.59905 4.28668 5.59905 4.28668C5.60139 4.28668 5.69239 4.31234 5.69472 4.42668H5.79272L5.77405 4.27734L5.42405 4.27968ZM5.40072 4.42901H5.79739C5.80439 4.42901 5.81139 4.43601 5.81139 4.44534C5.81139 4.45701 5.80439 4.46401 5.79739 4.46401H5.40072C5.39372 4.46401 5.38672 4.45701 5.38672 4.44534C5.38672 4.43601 5.39372 4.42901 5.40305 4.42901H5.40072Z" fill="#FFFF00" stroke="black" stroke-width="0.0116667"/>
<path d="M5.54386 4.42662C5.54386 4.34962 5.59753 4.32862 5.59753 4.32862C5.59753 4.32862 5.6512 4.35195 5.6512 4.42662H5.54386ZM5.40853 4.21662H5.78887C5.79587 4.21662 5.80287 4.22595 5.80287 4.23529C5.80287 4.24229 5.79587 4.24929 5.78887 4.24929H5.40853C5.40153 4.24929 5.39453 4.24229 5.39453 4.23295C5.39453 4.22595 5.40153 4.21895 5.40853 4.21895V4.21662ZM5.41786 4.25162H5.7772C5.7842 4.25162 5.7912 4.25862 5.7912 4.26795C5.7912 4.27729 5.7842 4.28429 5.7772 4.28429H5.41553C5.4062 4.28429 5.40153 4.27729 5.40153 4.26795C5.40153 4.25862 5.4062 4.25162 5.41553 4.25162H5.41786ZM5.53453 4.00429H5.56253V4.02295H5.58353V4.00429H5.61387V4.02529H5.63487V4.00195H5.66287V4.04862C5.66287 4.05795 5.6582 4.06262 5.6512 4.06262H5.54853C5.54153 4.06262 5.53453 4.05795 5.53453 4.05095V4.00429ZM5.64187 4.06729L5.64887 4.21662H5.54853L5.55553 4.06495H5.64187" fill="#FFFF00"/>
<path d="M5.64187 4.06729L5.64887 4.21662H5.54853L5.55553 4.06495H5.64187M5.54386 4.42662C5.54386 4.34962 5.59753 4.32862 5.59753 4.32862C5.59753 4.32862 5.6512 4.35195 5.6512 4.42662H5.54386ZM5.40853 4.21662H5.78887C5.79587 4.21662 5.80287 4.22595 5.80287 4.23529C5.80287 4.24229 5.79587 4.24929 5.78887 4.24929H5.40853C5.40153 4.24929 5.39453 4.24229 5.39453 4.23295C5.39453 4.22595 5.40153 4.21895 5.40853 4.21895V4.21662ZM5.41786 4.25162H5.7772C5.7842 4.25162 5.7912 4.25862 5.7912 4.26795C5.7912 4.27729 5.7842 4.28429 5.7772 4.28429H5.41553C5.4062 4.28429 5.40153 4.27729 5.40153 4.26795C5.40153 4.25862 5.4062 4.25162 5.41553 4.25162H5.41786ZM5.53453 4.00429H5.56253V4.02295H5.58353V4.00429H5.61387V4.02529H5.63487V4.00195H5.66287V4.04862C5.66287 4.05795 5.6582 4.06262 5.6512 4.06262H5.54853C5.54153 4.06262 5.53453 4.05795 5.53453 4.05095V4.00429Z" stroke="black" stroke-width="0.0116667"/>
<path d="M5.52302 4.13672V4.21605H5.42969V4.13672H5.52302Z" fill="#FFFF00" stroke="black" stroke-width="0.0116667"/>
<path d="M5.76911 4.13672V4.21605H5.67578V4.13672H5.76911Z" fill="#FFFF00" stroke="black" stroke-width="0.0116667"/>
<path d="M5.41406 4.07617H5.44206V4.09951H5.46306V4.07617H5.49106V4.09951H5.51206V4.07617H5.54006V4.12284C5.54006 4.13217 5.5354 4.13684 5.5284 4.13684H5.42806C5.42435 4.13684 5.42079 4.13536 5.41816 4.13274C5.41554 4.13011 5.41406 4.12655 5.41406 4.12284V4.07617Z" fill="#FFFF00" stroke="black" stroke-width="0.0116667"/>
<path d="M5.66016 4.07617H5.68816V4.09951H5.70916V4.07617H5.73716V4.09951H5.75816V4.07617H5.78616V4.12284C5.78616 4.13217 5.78149 4.13684 5.77449 4.13684H5.67416C5.67044 4.13684 5.66688 4.13536 5.66426 4.13274C5.66163 4.13011 5.66016 4.12655 5.66016 4.12284V4.07617Z" fill="#FFFF00" stroke="black" stroke-width="0.0116667"/>
<path d="M5.58984 4.11402C5.58984 4.10002 5.61084 4.10002 5.61084 4.11402V4.15135H5.58984V4.11402Z" fill="#000001"/>
<path d="M5.46484 4.1648C5.46484 4.1508 5.48351 4.1508 5.48351 4.1648V4.1928H5.46484V4.1648Z" fill="#000001"/>
<path d="M5.71484 4.1648C5.71484 4.1508 5.73351 4.1508 5.73351 4.1648V4.1928H5.71484V4.1648Z" fill="#000001"/>
<path d="M6.75781 4.43601C6.75548 4.30768 6.66448 4.27734 6.66448 4.27734C6.66215 4.27734 6.56415 4.31001 6.56415 4.43834L6.75781 4.43601Z" fill="#FFFF00"/>
<path d="M6.83767 4.27968L6.854 4.42668H6.756C6.756 4.30534 6.66267 4.28668 6.66267 4.28668C6.66033 4.28668 6.56933 4.31234 6.567 4.42668H6.469L6.48767 4.27734L6.83767 4.27968ZM6.861 4.42901H6.46433C6.45733 4.42901 6.45033 4.43601 6.45033 4.44534C6.45033 4.45701 6.45733 4.46401 6.46433 4.46401H6.861C6.868 4.46401 6.875 4.45701 6.875 4.44534C6.875 4.43601 6.868 4.42901 6.85867 4.42901H6.861Z" fill="#FFFF00" stroke="black" stroke-width="0.0116667"/>
<path d="M6.71785 4.42662C6.71785 4.34962 6.66419 4.32862 6.66419 4.32862C6.66419 4.32862 6.61052 4.35195 6.61052 4.42662H6.71785ZM6.85319 4.21662H6.47285C6.46585 4.21662 6.45885 4.22595 6.45885 4.23529C6.45885 4.24229 6.46585 4.24929 6.47285 4.24929H6.85319C6.86019 4.24929 6.86719 4.24229 6.86719 4.23295C6.86719 4.22595 6.86019 4.21895 6.85319 4.21895V4.21662ZM6.84385 4.25162H6.48452C6.47752 4.25162 6.47052 4.25862 6.47052 4.26795C6.47052 4.27729 6.47752 4.28429 6.48452 4.28429H6.84619C6.85552 4.28429 6.86019 4.27729 6.86019 4.26795C6.86019 4.25862 6.85552 4.25162 6.84619 4.25162H6.84385ZM6.72719 4.00429H6.69919V4.02295H6.67819V4.00429H6.64785V4.02529H6.62685V4.00195H6.59885V4.04862C6.59885 4.05795 6.60352 4.06262 6.61052 4.06262H6.71319C6.72019 4.06262 6.72719 4.05795 6.72719 4.05095V4.00429ZM6.61985 4.06729L6.61285 4.21662H6.71319L6.70619 4.06495H6.61985" fill="#FFFF00"/>
<path d="M6.61985 4.06729L6.61285 4.21662H6.71319L6.70619 4.06495H6.61985M6.71785 4.42662C6.71785 4.34962 6.66419 4.32862 6.66419 4.32862C6.66419 4.32862 6.61052 4.35195 6.61052 4.42662H6.71785ZM6.85319 4.21662H6.47285C6.46585 4.21662 6.45885 4.22595 6.45885 4.23529C6.45885 4.24229 6.46585 4.24929 6.47285 4.24929H6.85319C6.86019 4.24929 6.86719 4.24229 6.86719 4.23295C6.86719 4.22595 6.86019 4.21895 6.85319 4.21895V4.21662ZM6.84385 4.25162H6.48452C6.47752 4.25162 6.47052 4.25862 6.47052 4.26795C6.47052 4.27729 6.47752 4.28429 6.48452 4.28429H6.84619C6.85552 4.28429 6.86019 4.27729 6.86019 4.26795C6.86019 4.25862 6.85552 4.25162 6.84619 4.25162H6.84385ZM6.72719 4.00429H6.69919V4.02295H6.67819V4.00429H6.64785V4.02529H6.62685V4.00195H6.59885V4.04862C6.59885 4.05795 6.60352 4.06262 6.61052 4.06262H6.71319C6.72019 4.06262 6.72719 4.05795 6.72719 4.05095V4.00429Z" stroke="black" stroke-width="0.0116667"/>
<path d="M6.7387 4.13672V4.21605H6.83203V4.13672H6.7387Z" fill="#FFFF00" stroke="black" stroke-width="0.0116667"/>
<path d="M6.4926 4.13672V4.21605H6.58594V4.13672H6.4926Z" fill="#FFFF00" stroke="black" stroke-width="0.0116667"/>
<path d="M6.84766 4.07617H6.81966V4.09951H6.79866V4.07617H6.77066V4.09951H6.74966V4.07617H6.72166V4.12284C6.72166 4.13217 6.72632 4.13684 6.73332 4.13684H6.83366C6.83737 4.13684 6.84093 4.13536 6.84356 4.13274C6.84618 4.13011 6.84766 4.12655 6.84766 4.12284V4.07617Z" fill="#FFFF00" stroke="black" stroke-width="0.0116667"/>
<path d="M6.60156 4.07617H6.57356V4.09951H6.55256V4.07617H6.52456V4.09951H6.50356V4.07617H6.47556V4.12284C6.47556 4.13217 6.48023 4.13684 6.48723 4.13684H6.58756C6.59128 4.13684 6.59484 4.13536 6.59746 4.13274C6.60009 4.13011 6.60156 4.12655 6.60156 4.12284V4.07617Z" fill="#FFFF00" stroke="black" stroke-width="0.0116667"/>
<path d="M6.67188 4.11402C6.67188 4.10002 6.65087 4.10002 6.65087 4.11402V4.15135H6.67188V4.11402Z" fill="#000001"/>
<path d="M6.79688 4.1648C6.79688 4.1508 6.77821 4.1508 6.77821 4.1648V4.1928H6.79688V4.1648Z" fill="#000001"/>
<path d="M6.54688 4.1648C6.54688 4.1508 6.52821 4.1508 6.52821 4.1648V4.1928H6.54688V4.1648Z" fill="#000001"/>
<path d="M6.75781 5.51609C6.75548 5.38776 6.66448 5.35742 6.66448 5.35742C6.66215 5.35742 6.56415 5.39009 6.56415 5.51842L6.75781 5.51609Z" fill="#FFFF00"/>
<path d="M6.83767 5.35976L6.854 5.50676H6.756C6.756 5.38542 6.66267 5.36676 6.66267 5.36676C6.66033 5.36676 6.56933 5.39242 6.567 5.50676H6.469L6.48767 5.35742L6.83767 5.35976ZM6.861 5.50909H6.46433C6.45733 5.50909 6.45033 5.51609 6.45033 5.52542C6.45033 5.53709 6.45733 5.54409 6.46433 5.54409H6.861C6.868 5.54409 6.875 5.53709 6.875 5.52542C6.875 5.51609 6.868 5.50909 6.85867 5.50909H6.861Z" fill="#FFFF00" stroke="black" stroke-width="0.0116667"/>
<path d="M6.71785 5.5067C6.71785 5.4297 6.66419 5.4087 6.66419 5.4087C6.66419 5.4087 6.61052 5.43203 6.61052 5.5067H6.71785ZM6.85319 5.2967H6.47285C6.46585 5.2967 6.45885 5.30603 6.45885 5.31537C6.45885 5.32237 6.46585 5.32937 6.47285 5.32937H6.85319C6.86019 5.32937 6.86719 5.32237 6.86719 5.31303C6.86719 5.30603 6.86019 5.29903 6.85319 5.29903V5.2967ZM6.84385 5.3317H6.48452C6.47752 5.3317 6.47052 5.3387 6.47052 5.34803C6.47052 5.35737 6.47752 5.36437 6.48452 5.36437H6.84619C6.85552 5.36437 6.86019 5.35737 6.86019 5.34803C6.86019 5.3387 6.85552 5.3317 6.84619 5.3317H6.84385ZM6.72719 5.08436H6.69919V5.10303H6.67819V5.08436H6.64785V5.10536H6.62685V5.08203H6.59885V5.1287C6.59885 5.13803 6.60352 5.1427 6.61052 5.1427H6.71319C6.72019 5.1427 6.72719 5.13803 6.72719 5.13103V5.08436ZM6.61985 5.14736L6.61285 5.2967H6.71319L6.70619 5.14503H6.61985" fill="#FFFF00"/>
<path d="M6.61985 5.14736L6.61285 5.2967H6.71319L6.70619 5.14503H6.61985M6.71785 5.5067C6.71785 5.4297 6.66419 5.4087 6.66419 5.4087C6.66419 5.4087 6.61052 5.43203 6.61052 5.5067H6.71785ZM6.85319 5.2967H6.47285C6.46585 5.2967 6.45885 5.30603 6.45885 5.31537C6.45885 5.32237 6.46585 5.32937 6.47285 5.32937H6.85319C6.86019 5.32937 6.86719 5.32237 6.86719 5.31303C6.86719 5.30603 6.86019 5.29903 6.85319 5.29903V5.2967ZM6.84385 5.3317H6.48452C6.47752 5.3317 6.47052 5.3387 6.47052 5.34803C6.47052 5.35737 6.47752 5.36437 6.48452 5.36437H6.84619C6.85552 5.36437 6.86019 5.35737 6.86019 5.34803C6.86019 5.3387 6.85552 5.3317 6.84619 5.3317H6.84385ZM6.72719 5.08436H6.69919V5.10303H6.67819V5.08436H6.64785V5.10536H6.62685V5.08203H6.59885V5.1287C6.59885 5.13803 6.60352 5.1427 6.61052 5.1427H6.71319C6.72019 5.1427 6.72719 5.13803 6.72719 5.13103V5.08436Z" stroke="black" stroke-width="0.0116667"/>
<path d="M6.7387 5.2168V5.29613H6.83203V5.2168H6.7387Z" fill="#FFFF00" stroke="black" stroke-width="0.0116667"/>
<path d="M6.4926 5.2168V5.29613H6.58594V5.2168H6.4926Z" fill="#FFFF00" stroke="black" stroke-width="0.0116667"/>
<path d="M6.84766 5.15625H6.81966V5.17958H6.79866V5.15625H6.77066V5.17958H6.74966V5.15625H6.72166V5.20292C6.72166 5.21225 6.72632 5.21692 6.73332 5.21692H6.83366C6.83737 5.21692 6.84093 5.21544 6.84356 5.21282C6.84618 5.21019 6.84766 5.20663 6.84766 5.20292V5.15625Z" fill="#FFFF00" stroke="black" stroke-width="0.0116667"/>
<path d="M6.60156 5.15625H6.57356V5.17958H6.55256V5.15625H6.52456V5.17958H6.50356V5.15625H6.47556V5.20292C6.47556 5.21225 6.48023 5.21692 6.48723 5.21692H6.58756C6.59128 5.21692 6.59484 5.21544 6.59746 5.21282C6.60009 5.21019 6.60156 5.20663 6.60156 5.20292V5.15625Z" fill="#FFFF00" stroke="black" stroke-width="0.0116667"/>
<path d="M6.67188 5.19409C6.67188 5.18009 6.65087 5.18009 6.65087 5.19409V5.23143H6.67188V5.19409Z" fill="#000001"/>
<path d="M6.79688 5.24488C6.79688 5.23087 6.77821 5.23087 6.77821 5.24488V5.27288H6.79688V5.24488Z" fill="#000001"/>
<path d="M6.54688 5.24488C6.54688 5.23087 6.52821 5.23087 6.52821 5.24488V5.27288H6.54688V5.24488Z" fill="#000001"/>
<path d="M6.33663 6.64305C6.42605 6.55097 6.38345 6.46502 6.38345 6.46502C6.38181 6.46337 6.28957 6.41685 6.19851 6.50728L6.33663 6.64305Z" fill="#FFFF00"/>
<path d="M6.50329 6.58843L6.41049 6.70361L6.34144 6.63407C6.42753 6.54857 6.37501 6.46919 6.37501 6.46919C6.37337 6.46754 6.29103 6.42105 6.20826 6.49996L6.1392 6.43042L6.25832 6.33844L6.50329 6.58843ZM6.41377 6.71022L6.13426 6.42875C6.12933 6.42379 6.11943 6.42375 6.11281 6.43033C6.10453 6.43855 6.10449 6.44845 6.10943 6.45342L6.38893 6.73488C6.39386 6.73985 6.40376 6.73988 6.41204 6.73166C6.41866 6.72508 6.4187 6.71518 6.41212 6.70856L6.41377 6.71022Z" fill="#FFFF00" stroke="black" stroke-width="0.0116667"/>
<path d="M6.31219 6.60734C6.36683 6.55308 6.34392 6.5002 6.34392 6.5002C6.34392 6.5002 6.28954 6.47856 6.23656 6.53117L6.31219 6.60734ZM6.55656 6.55539L6.28857 6.28552C6.28363 6.28055 6.27208 6.28216 6.26546 6.28874C6.26049 6.29367 6.26046 6.30357 6.26539 6.30853L6.53338 6.57841C6.53832 6.58338 6.54822 6.58341 6.55484 6.57683C6.55981 6.5719 6.55984 6.562 6.55491 6.55703L6.55656 6.55539ZM6.52515 6.57343L6.27195 6.31846C6.26702 6.31349 6.25712 6.31346 6.2505 6.32003C6.24388 6.32661 6.24384 6.33651 6.24877 6.34147L6.50362 6.5981C6.51019 6.60473 6.51845 6.60311 6.52507 6.59653C6.53169 6.58995 6.53337 6.58171 6.5268 6.57509L6.52515 6.57343ZM6.61845 6.31637L6.59872 6.2965L6.58547 6.30965L6.57067 6.29475L6.58392 6.2816L6.56254 6.26007L6.54764 6.27487L6.53285 6.25997L6.5494 6.24353L6.52967 6.22366L6.49656 6.25654C6.48994 6.26312 6.48991 6.26972 6.49485 6.27469L6.56719 6.34754C6.57212 6.3525 6.58036 6.35418 6.58533 6.34925L6.61845 6.31637ZM6.49811 6.2846L6.38722 6.38486L6.45791 6.45605L6.5606 6.34421L6.49977 6.28295" fill="#FFFF00"/>
<path d="M6.49811 6.2846L6.38722 6.38486L6.45791 6.45605L6.5606 6.34421L6.49977 6.28295M6.31219 6.60734C6.36683 6.55308 6.34392 6.5002 6.34392 6.5002C6.34392 6.5002 6.28954 6.47856 6.23656 6.53117L6.31219 6.60734ZM6.55656 6.55539L6.28857 6.28552C6.28363 6.28055 6.27208 6.28216 6.26546 6.28874C6.26049 6.29367 6.26046 6.30357 6.26539 6.30853L6.53338 6.57841C6.53832 6.58338 6.54822 6.58341 6.55484 6.57683C6.55981 6.5719 6.55984 6.562 6.55491 6.55703L6.55656 6.55539ZM6.52515 6.57343L6.27195 6.31846C6.26702 6.31349 6.25712 6.31346 6.2505 6.32003C6.24388 6.32661 6.24384 6.33651 6.24877 6.34147L6.50362 6.5981C6.51019 6.60473 6.51845 6.60311 6.52507 6.59653C6.53169 6.58995 6.53337 6.58171 6.5268 6.57509L6.52515 6.57343ZM6.61845 6.31637L6.59872 6.2965L6.58547 6.30965L6.57067 6.29475L6.58392 6.2816L6.56254 6.26007L6.54764 6.27487L6.53285 6.25997L6.5494 6.24353L6.52967 6.22366L6.49656 6.25654C6.48994 6.26312 6.48991 6.26972 6.49485 6.27469L6.56719 6.34754C6.57212 6.3525 6.58036 6.35418 6.58533 6.34925L6.61845 6.31637Z" stroke="black" stroke-width="0.0116667"/>
<path d="M6.5358 6.4201L6.4795 6.476L6.54527 6.54223L6.60156 6.48633L6.5358 6.4201Z" fill="#FFFF00" stroke="black" stroke-width="0.0116667"/>
<path d="M6.36002 6.24432L6.30372 6.30022L6.36949 6.36645L6.42578 6.31055L6.36002 6.24432Z" fill="#FFFF00" stroke="black" stroke-width="0.0116667"/>
<path d="M6.65625 6.45508L6.63652 6.43521L6.61996 6.45165L6.60517 6.43675L6.62172 6.42031L6.60199 6.40044L6.58544 6.41688L6.57064 6.40198L6.5872 6.38554L6.56747 6.36567L6.53435 6.39856C6.52773 6.40513 6.52771 6.41173 6.53264 6.4167L6.60334 6.48789C6.60595 6.49053 6.60951 6.49201 6.61322 6.49203C6.61694 6.49204 6.6205 6.49058 6.62314 6.48796L6.65625 6.45508Z" fill="#FFFF00" stroke="black" stroke-width="0.0116667"/>
<path d="M6.48047 6.2793L6.46074 6.25943L6.44418 6.27587L6.42939 6.26097L6.44594 6.24453L6.42621 6.22466L6.40965 6.2411L6.39486 6.2262L6.41141 6.20976L6.39168 6.18989L6.35857 6.22277C6.35195 6.22935 6.35193 6.23595 6.35686 6.24092L6.42756 6.31211C6.43017 6.31475 6.43373 6.31623 6.43744 6.31625C6.44115 6.31626 6.44472 6.3148 6.44736 6.31218L6.48047 6.2793Z" fill="#FFFF00" stroke="black" stroke-width="0.0116667"/>
<path d="M6.50427 6.35505C6.5142 6.34519 6.4994 6.33029 6.48947 6.34015L6.46298 6.36646L6.47778 6.38136L6.50427 6.35505Z" fill="#000001"/>
<path d="M6.55505 6.4781C6.56498 6.46824 6.55183 6.45499 6.5419 6.46486L6.52203 6.48459L6.53518 6.49783L6.55505 6.4781Z" fill="#000001"/>
<path d="M6.37927 6.30232C6.3892 6.29246 6.37605 6.27921 6.36612 6.28908L6.34625 6.30881L6.3594 6.32205L6.37927 6.30232Z" fill="#000001"/>
<path d="M5.42969 5.55669C5.42927 5.60594 5.44763 5.65349 5.48103 5.68969C5.49661 5.70711 5.51566 5.72109 5.53695 5.73074C5.55825 5.74038 5.58132 5.74547 5.6047 5.74569C5.6537 5.74569 5.69803 5.72236 5.72836 5.68969C5.76176 5.65349 5.78012 5.60594 5.7797 5.55669V5.30469H5.42969V5.55669Z" fill="#003399"/>
<path d="M5.51156 5.43523C5.53089 5.43523 5.54656 5.41956 5.54656 5.40023C5.54656 5.3809 5.53089 5.36523 5.51156 5.36523C5.49223 5.36523 5.47656 5.3809 5.47656 5.40023C5.47656 5.41956 5.49223 5.43523 5.51156 5.43523Z" fill="white"/>
<path d="M5.70688 5.43523C5.72621 5.43523 5.74188 5.41956 5.74188 5.40023C5.74188 5.3809 5.72621 5.36523 5.70688 5.36523C5.68755 5.36523 5.67188 5.3809 5.67188 5.40023C5.67188 5.41956 5.68755 5.43523 5.70688 5.43523Z" fill="white"/>
<path d="M5.60531 5.52898C5.62464 5.52898 5.64031 5.51331 5.64031 5.49398C5.64031 5.47465 5.62464 5.45898 5.60531 5.45898C5.58598 5.45898 5.57031 5.47465 5.57031 5.49398C5.57031 5.51331 5.58598 5.52898 5.60531 5.52898Z" fill="white"/>
<path d="M5.51156 5.62664C5.53089 5.62664 5.54656 5.61097 5.54656 5.59164C5.54656 5.57231 5.53089 5.55664 5.51156 5.55664C5.49223 5.55664 5.47656 5.57231 5.47656 5.59164C5.47656 5.61097 5.49223 5.62664 5.51156 5.62664Z" fill="white"/>
<path d="M5.70688 5.62664C5.72621 5.62664 5.74188 5.61097 5.74188 5.59164C5.74188 5.57231 5.72621 5.55664 5.70688 5.55664C5.68755 5.55664 5.67188 5.57231 5.67188 5.59164C5.67188 5.61097 5.68755 5.62664 5.70688 5.62664Z" fill="white"/>
<path d="M5.42969 4.94927C5.42927 4.99851 5.44763 5.04607 5.48103 5.08227C5.49661 5.09969 5.51566 5.11367 5.53695 5.12331C5.55825 5.13296 5.58132 5.13805 5.6047 5.13827C5.6537 5.13827 5.69803 5.11493 5.72836 5.08227C5.76176 5.04607 5.78012 4.99851 5.7797 4.94927V4.69727H5.42969V4.94927Z" fill="#003399"/>
<path d="M5.51156 4.82781C5.53089 4.82781 5.54656 4.81214 5.54656 4.79281C5.54656 4.77348 5.53089 4.75781 5.51156 4.75781C5.49223 4.75781 5.47656 4.77348 5.47656 4.79281C5.47656 4.81214 5.49223 4.82781 5.51156 4.82781Z" fill="white"/>
<path d="M5.70688 4.82781C5.72621 4.82781 5.74188 4.81214 5.74188 4.79281C5.74188 4.77348 5.72621 4.75781 5.70688 4.75781C5.68755 4.75781 5.67188 4.77348 5.67188 4.79281C5.67188 4.81214 5.68755 4.82781 5.70688 4.82781Z" fill="white"/>
<path d="M5.60531 4.92156C5.62464 4.92156 5.64031 4.90589 5.64031 4.88656C5.64031 4.86723 5.62464 4.85156 5.60531 4.85156C5.58598 4.85156 5.57031 4.86723 5.57031 4.88656C5.57031 4.90589 5.58598 4.92156 5.60531 4.92156Z" fill="white"/>
<path d="M5.51156 5.01922C5.53089 5.01922 5.54656 5.00355 5.54656 4.98422C5.54656 4.96489 5.53089 4.94922 5.51156 4.94922C5.49223 4.94922 5.47656 4.96489 5.47656 4.98422C5.47656 5.00355 5.49223 5.01922 5.51156 5.01922Z" fill="white"/>
<path d="M5.70688 5.01922C5.72621 5.01922 5.74188 5.00355 5.74188 4.98422C5.74188 4.96489 5.72621 4.94922 5.70688 4.94922C5.68755 4.94922 5.67188 4.96489 5.67188 4.98422C5.67188 5.00355 5.68755 5.01922 5.70688 5.01922Z" fill="white"/>
<path d="M4.94141 5.55669C4.94099 5.60594 4.95935 5.65349 4.99275 5.68969C5.00833 5.70711 5.02738 5.72109 5.04867 5.73074C5.06997 5.74038 5.09304 5.74547 5.11641 5.74569C5.16541 5.74569 5.20975 5.72236 5.24008 5.68969C5.27348 5.65349 5.29184 5.60594 5.29141 5.55669V5.30469H4.94141V5.55669Z" fill="#003399"/>
<path d="M5.02328 5.43523C5.04261 5.43523 5.05828 5.41956 5.05828 5.40023C5.05828 5.3809 5.04261 5.36523 5.02328 5.36523C5.00395 5.36523 4.98828 5.3809 4.98828 5.40023C4.98828 5.41956 5.00395 5.43523 5.02328 5.43523Z" fill="white"/>
<path d="M5.21859 5.43523C5.23792 5.43523 5.25359 5.41956 5.25359 5.40023C5.25359 5.3809 5.23792 5.36523 5.21859 5.36523C5.19926 5.36523 5.18359 5.3809 5.18359 5.40023C5.18359 5.41956 5.19926 5.43523 5.21859 5.43523Z" fill="white"/>
<path d="M5.11703 5.52898C5.13636 5.52898 5.15203 5.51331 5.15203 5.49398C5.15203 5.47465 5.13636 5.45898 5.11703 5.45898C5.0977 5.45898 5.08203 5.47465 5.08203 5.49398C5.08203 5.51331 5.0977 5.52898 5.11703 5.52898Z" fill="white"/>
<path d="M5.02328 5.62664C5.04261 5.62664 5.05828 5.61097 5.05828 5.59164C5.05828 5.57231 5.04261 5.55664 5.02328 5.55664C5.00395 5.55664 4.98828 5.57231 4.98828 5.59164C4.98828 5.61097 5.00395 5.62664 5.02328 5.62664Z" fill="white"/>
<path d="M5.21859 5.62664C5.23792 5.62664 5.25359 5.61097 5.25359 5.59164C5.25359 5.57231 5.23792 5.55664 5.21859 5.55664C5.19926 5.55664 5.18359 5.57231 5.18359 5.59164C5.18359 5.61097 5.19926 5.62664 5.21859 5.62664Z" fill="white"/>
<path d="M5.91407 5.55669C5.91365 5.60594 5.932 5.65349 5.9654 5.68969C5.98099 5.70711 6.00003 5.72109 6.02133 5.73074C6.04262 5.74038 6.0657 5.74547 6.08907 5.74569C6.13807 5.74569 6.1824 5.72236 6.21274 5.68969C6.24614 5.65349 6.26449 5.60594 6.26407 5.55669V5.30469H5.91407V5.55669Z" fill="#003399"/>
<path d="M5.99594 5.43523C6.01527 5.43523 6.03094 5.41956 6.03094 5.40023C6.03094 5.3809 6.01527 5.36523 5.99594 5.36523C5.97661 5.36523 5.96094 5.3809 5.96094 5.40023C5.96094 5.41956 5.97661 5.43523 5.99594 5.43523Z" fill="white"/>
<path d="M6.19125 5.43523C6.21058 5.43523 6.22625 5.41956 6.22625 5.40023C6.22625 5.3809 6.21058 5.36523 6.19125 5.36523C6.17192 5.36523 6.15625 5.3809 6.15625 5.40023C6.15625 5.41956 6.17192 5.43523 6.19125 5.43523Z" fill="white"/>
<path d="M6.08969 5.52898C6.10902 5.52898 6.12469 5.51331 6.12469 5.49398C6.12469 5.47465 6.10902 5.45898 6.08969 5.45898C6.07036 5.45898 6.05469 5.47465 6.05469 5.49398C6.05469 5.51331 6.07036 5.52898 6.08969 5.52898Z" fill="white"/>
<path d="M5.99594 5.62664C6.01527 5.62664 6.03094 5.61097 6.03094 5.59164C6.03094 5.57231 6.01527 5.55664 5.99594 5.55664C5.97661 5.55664 5.96094 5.57231 5.96094 5.59164C5.96094 5.61097 5.97661 5.62664 5.99594 5.62664Z" fill="white"/>
<path d="M6.19125 5.62664C6.21058 5.62664 6.22625 5.61097 6.22625 5.59164C6.22625 5.57231 6.21058 5.55664 6.19125 5.55664C6.17192 5.55664 6.15625 5.57231 6.15625 5.59164C6.15625 5.61097 6.17192 5.62664 6.19125 5.62664Z" fill="white"/>
<path d="M5.42969 6.15825C5.42927 6.2075 5.44763 6.25506 5.48103 6.29125C5.49661 6.30868 5.51566 6.32266 5.53695 6.3323C5.55825 6.34194 5.58132 6.34703 5.6047 6.34725C5.6537 6.34725 5.69803 6.32392 5.72836 6.29125C5.76176 6.25506 5.78012 6.2075 5.7797 6.15825V5.90625H5.42969V6.15825Z" fill="#003399"/>
<path d="M5.51156 6.0368C5.53089 6.0368 5.54656 6.02113 5.54656 6.0018C5.54656 5.98247 5.53089 5.9668 5.51156 5.9668C5.49223 5.9668 5.47656 5.98247 5.47656 6.0018C5.47656 6.02113 5.49223 6.0368 5.51156 6.0368Z" fill="white"/>
<path d="M5.70688 6.0368C5.72621 6.0368 5.74188 6.02113 5.74188 6.0018C5.74188 5.98247 5.72621 5.9668 5.70688 5.9668C5.68755 5.9668 5.67188 5.98247 5.67188 6.0018C5.67188 6.02113 5.68755 6.0368 5.70688 6.0368Z" fill="white"/>
<path d="M5.60531 6.13055C5.62464 6.13055 5.64031 6.11488 5.64031 6.09555C5.64031 6.07622 5.62464 6.06055 5.60531 6.06055C5.58598 6.06055 5.57031 6.07622 5.57031 6.09555C5.57031 6.11488 5.58598 6.13055 5.60531 6.13055Z" fill="white"/>
<path d="M5.51156 6.2282C5.53089 6.2282 5.54656 6.21253 5.54656 6.1932C5.54656 6.17387 5.53089 6.1582 5.51156 6.1582C5.49223 6.1582 5.47656 6.17387 5.47656 6.1932C5.47656 6.21253 5.49223 6.2282 5.51156 6.2282Z" fill="white"/>
<path d="M5.70688 6.2282C5.72621 6.2282 5.74188 6.21253 5.74188 6.1932C5.74188 6.17387 5.72621 6.1582 5.70688 6.1582C5.68755 6.1582 5.67188 6.17387 5.67188 6.1932C5.67188 6.21253 5.68755 6.2282 5.70688 6.2282Z" fill="white"/>
</g>
<defs>
<clipPath id="clip0_1824_6863">
<rect y="0.25" width="14" height="10.5" rx="2" fill="white"/>
</clipPath>
</defs>
</svg>
